# xmcd
#
# Track frame offsets: 
#        150
#        28961
#        59774
#        82427
#        96951
#        114750
#        144033
#        170235
#        212852
#        258292
#        258672
#        259052
#
# Disc length: 3870 seconds
#
# Revision: 0
# Processed by: cddbd v1.5.2PL0 Copyright (c) Steve Scherf et al.
# Submitted via: ExactAudioCopy v0.99pb5
#
DISCID=b80f1c0c
DTITLE=Lobi Traore - Bwati Kono "In the Club"
DYEAR=2010
DGENRE=African Blues
TTITLE0=Makono
TTITLE1=Banan Ni
TTITLE2=Saya
TTITLE3=Jama
TTITLE4=Mali Ba
TTITLE5=Da Yoro
TTITLE6=Bi Donga Fa Ko
TTITLE7=Maya Gasi Ka Bon
TTITLE8=Ya Time
TTITLE9=silence-delete
TTITLE10=silence-delete
TTITLE11=un-named song
EXTD=
EXTT0=
EXTT1=
EXTT2=
EXTT3=
EXTT4=
EXTT5=
EXTT6=
EXTT7=
EXTT8=
EXTT9=
EXTT10=
EXTT11=
PLAYORDER=
